<svg width="1500" height="936" viewBox="0 0 1500 936" fill="none" xmlns="http://www.w3.org/2000/svg">
<g opacity="0.05">
<path d="M1500 467.782L1032 935.783H1036.75L1500 472.53V467.782Z" fill="url(#paint0_linear_1392_9494)"/>
<path d="M1500 424.374L988.591 935.783H993.338L1500 429.122V424.374Z" fill="url(#paint1_linear_1392_9494)"/>
<path d="M1500 380.965L944.843 935.783H949.93L1500 385.713V380.965Z" fill="url(#paint2_linear_1392_9494)"/>
<path d="M1500 337.556L901.434 935.782H906.182L1500 342.303V337.556Z" fill="url(#paint3_linear_1392_9494)"/>
<path d="M1500 293.809L858.025 935.783H862.773L1500 298.556V293.809Z" fill="url(#paint4_linear_1392_9494)"/>
<path d="M1500 250.399L814.616 935.783H819.364L1500 255.147V250.399Z" fill="url(#paint5_linear_1392_9494)"/>
<path d="M1500 206.991L771.208 935.783H775.956L1500 211.739V206.991Z" fill="url(#paint6_linear_1392_9494)"/>
<path d="M1500 163.582L727.46 935.783H732.208L1500 168.33V163.582Z" fill="url(#paint7_linear_1392_9494)"/>
<path d="M1500 119.834L684.051 935.783H688.799L1500 124.921V119.834Z" fill="url(#paint8_linear_1392_9494)"/>
<path d="M1500 76.4258L640.643 935.783H645.391L1500 81.1736V76.4258Z" fill="url(#paint9_linear_1392_9494)"/>
<path d="M1500 33.0166L597.234 935.783H601.982L1500 37.7644V33.0166Z" fill="url(#paint10_linear_1392_9494)"/>
<path d="M1500 -10.3916L553.486 935.783H558.573L1500 -5.64377V-10.3916Z" fill="url(#paint11_linear_1392_9494)"/>
<path d="M1500 -54.1396L510.078 935.783H514.826L1500 -49.0527V-54.1396Z" fill="url(#paint12_linear_1392_9494)"/>
<path d="M471.417 935.783L1498.98 -91.7832H1494.24L466.669 935.783H471.417Z" fill="url(#paint13_linear_1392_9494)"/>
<path d="M428.008 935.783L1455.57 -91.7832H1450.83L423.26 935.783H428.008Z" fill="url(#paint14_linear_1392_9494)"/>
<path d="M384.6 935.783L1411.83 -91.7832H1407.08L379.513 935.783H384.6Z" fill="url(#paint15_linear_1392_9494)"/>
<path d="M340.851 935.783L1368.42 -91.7832H1363.67L336.104 935.783H340.851Z" fill="url(#paint16_linear_1392_9494)"/>
<path d="M297.443 935.783L1325.01 -91.7832H1320.26L292.695 935.783H297.443Z" fill="url(#paint17_linear_1392_9494)"/>
<path d="M1056.08 -91.7832L545.008 419.287L547.381 421.661L1060.83 -91.7832H1056.08Z" fill="url(#paint18_linear_1392_9494)"/>
<path d="M1012.67 -91.7832L523.303 397.582L525.677 399.956L1017.42 -91.7832H1012.67Z" fill="url(#paint19_linear_1392_9494)"/>
<path d="M969.26 -91.7832L501.599 375.878L503.972 378.252L974.008 -91.7832H969.26Z" fill="url(#paint20_linear_1392_9494)"/>
<path d="M925.512 -91.7832L479.895 354.174L482.269 356.548L930.599 -91.7832H925.512Z" fill="url(#paint21_linear_1392_9494)"/>
<path d="M882.103 -91.7832L458.189 332.469L460.563 334.843L886.851 -91.7832H882.103Z" fill="url(#paint22_linear_1392_9494)"/>
<path d="M838.695 -91.7832L436.146 310.426L438.859 313.139L843.442 -91.7832H838.695Z" fill="url(#paint23_linear_1392_9494)"/>
<path d="M795.286 -91.7832L414.442 288.721L416.816 291.095L800.034 -91.7832H795.286Z" fill="url(#paint24_linear_1392_9494)"/>
<path d="M751.538 -91.7832L392.738 267.017L395.112 269.391L756.625 -91.7832H751.538Z" fill="url(#paint25_linear_1392_9494)"/>
<path d="M708.129 -91.7832L371.033 245.313L373.407 247.687L712.877 -91.7832H708.129Z" fill="url(#paint26_linear_1392_9494)"/>
<path d="M664.721 -91.7832L349.329 223.608L351.703 225.982L669.469 -91.7832H664.721Z" fill="url(#paint27_linear_1392_9494)"/>
<path d="M621.312 -91.7832L327.624 201.904L329.998 204.278L626.059 -91.7832H621.312Z" fill="url(#paint28_linear_1392_9494)"/>
<path d="M577.564 -91.7832L305.92 180.2L308.294 182.574L582.651 -91.7832H577.564Z" fill="url(#paint29_linear_1392_9494)"/>
<path d="M534.156 -91.7832L284.216 158.495L286.59 160.869L538.903 -91.7832H534.156Z" fill="url(#paint30_linear_1392_9494)"/>
<path d="M490.747 -91.7832L262.512 136.791L264.886 139.165L495.495 -91.7832H490.747Z" fill="url(#paint31_linear_1392_9494)"/>
<path d="M447.338 -91.7832L240.468 114.747L242.842 117.121L452.086 -91.7832H447.338Z" fill="url(#paint32_linear_1392_9494)"/>
<path d="M403.929 -91.7832L218.764 93.043L221.138 95.417L408.677 -91.7832H403.929Z" fill="url(#paint33_linear_1392_9494)"/>
<path d="M360.181 -91.7832L197.059 71.3387L199.433 73.7126L364.929 -91.7832H360.181Z" fill="url(#paint34_linear_1392_9494)"/>
<path d="M316.772 -91.7832L175.355 49.6343L177.729 52.0082L321.52 -91.7832H316.772Z" fill="url(#paint35_linear_1392_9494)"/>
<path d="M25.7991 -91.7832L673.878 556.296L676.252 553.922L30.5469 -91.7832H25.7991Z" fill="url(#paint36_linear_1392_9494)"/>
<path d="M-0.65332 -79.5742V-74.8264L652.173 578L654.547 575.626L-0.65332 -79.5742Z" fill="url(#paint37_linear_1392_9494)"/>
<path d="M-0.65332 -36.166V-31.4182L630.469 599.704L632.843 597.33L-0.65332 -36.166Z" fill="url(#paint38_linear_1392_9494)"/>
<path d="M-0.65332 7.24316V11.991L608.765 621.409L611.138 619.035L-0.65332 7.24316Z" fill="url(#paint39_linear_1392_9494)"/>
<path d="M-0.65332 50.6514V55.3992L587.06 643.113L589.434 640.739L-0.65332 50.6514Z" fill="url(#paint40_linear_1392_9494)"/>
<path d="M-0.65332 94.3994V99.1472L565.017 664.817L567.73 662.443L-0.65332 94.3994Z" fill="url(#paint41_linear_1392_9494)"/>
<path d="M-0.65332 137.809V142.556L543.312 686.522L545.686 684.148L-0.65332 137.809Z" fill="url(#paint42_linear_1392_9494)"/>
<path d="M-0.65332 181.217V185.965L521.608 708.565L523.982 706.191L-0.65332 181.217Z" fill="url(#paint43_linear_1392_9494)"/>
<path d="M-0.65332 224.626V229.374L499.904 730.27L502.278 727.896L-0.65332 224.626Z" fill="url(#paint44_linear_1392_9494)"/>
<path d="M-0.65332 268.034V273.121L478.199 751.974L480.573 749.6L-0.65332 268.034Z" fill="url(#paint45_linear_1392_9494)"/>
<path d="M-0.65332 311.782V316.53L456.495 773.678L458.869 771.304L-0.65332 311.782Z" fill="url(#paint46_linear_1392_9494)"/>
<path d="M-0.65332 355.191V359.939L434.79 795.383L437.164 793.009L-0.65332 355.191Z" fill="url(#paint47_linear_1392_9494)"/>
<path d="M-0.65332 398.6V403.347L413.086 817.087L415.46 814.713L-0.65332 398.6Z" fill="url(#paint48_linear_1392_9494)"/>
<path d="M-0.65332 442.009V447.096L391.382 838.792L393.756 836.418L-0.65332 442.009Z" fill="url(#paint49_linear_1392_9494)"/>
<path d="M-0.65332 485.756V490.504L369.338 860.495L371.712 858.121L-0.65332 485.756Z" fill="url(#paint50_linear_1392_9494)"/>
<path d="M-0.65332 529.165V533.913L347.634 882.539L350.008 879.826L-0.65332 529.165Z" fill="url(#paint51_linear_1392_9494)"/>
<path d="M-0.65332 572.574V577.322L325.93 904.244L328.303 901.87L-0.65332 572.574Z" fill="url(#paint52_linear_1392_9494)"/>
<path d="M-0.65332 615.982V620.73L304.225 925.948L306.599 923.574L-0.65332 615.982Z" fill="url(#paint53_linear_1392_9494)"/>
</g>
<defs>
<linearGradient id="paint0_linear_1392_9494" x1="1784.33" y1="185.789" x2="824.008" y2="1146.11" gradientUnits="userSpaceOnUse">
<stop/>
<stop offset="0.2022" stop-color="#2F2F2F"/>
<stop offset="0.6582" stop-color="#A4A4A4"/>
<stop offset="1" stop-color="white"/>
</linearGradient>
<linearGradient id="paint1_linear_1392_9494" x1="1762.59" y1="164.045" x2="802.265" y2="1124.37" gradientUnits="userSpaceOnUse">
<stop/>
<stop offset="0.2022" stop-color="#2F2F2F"/>
<stop offset="0.6582" stop-color="#A4A4A4"/>
<stop offset="1" stop-color="white"/>
</linearGradient>
<linearGradient id="paint2_linear_1392_9494" x1="1740.84" y1="142.299" x2="780.523" y2="1102.62" gradientUnits="userSpaceOnUse">
<stop/>
<stop offset="0.2022" stop-color="#2F2F2F"/>
<stop offset="0.6582" stop-color="#A4A4A4"/>
<stop offset="1" stop-color="white"/>
</linearGradient>
<linearGradient id="paint3_linear_1392_9494" x1="1719.1" y1="120.555" x2="758.778" y2="1080.87" gradientUnits="userSpaceOnUse">
<stop/>
<stop offset="0.2022" stop-color="#2F2F2F"/>
<stop offset="0.6582" stop-color="#A4A4A4"/>
<stop offset="1" stop-color="white"/>
</linearGradient>
<linearGradient id="paint4_linear_1392_9494" x1="1697.35" y1="98.8112" x2="737.03" y2="1059.13" gradientUnits="userSpaceOnUse">
<stop/>
<stop offset="0.2022" stop-color="#2F2F2F"/>
<stop offset="0.6582" stop-color="#A4A4A4"/>
<stop offset="1" stop-color="white"/>
</linearGradient>
<linearGradient id="paint5_linear_1392_9494" x1="1675.61" y1="77.0673" x2="715.285" y2="1037.39" gradientUnits="userSpaceOnUse">
<stop/>
<stop offset="0.2022" stop-color="#2F2F2F"/>
<stop offset="0.6582" stop-color="#A4A4A4"/>
<stop offset="1" stop-color="white"/>
</linearGradient>
<linearGradient id="paint6_linear_1392_9494" x1="1653.86" y1="55.3238" x2="693.541" y2="1015.65" gradientUnits="userSpaceOnUse">
<stop/>
<stop offset="0.2022" stop-color="#2F2F2F"/>
<stop offset="0.6582" stop-color="#A4A4A4"/>
<stop offset="1" stop-color="white"/>
</linearGradient>
<linearGradient id="paint7_linear_1392_9494" x1="1632.12" y1="33.5786" x2="671.803" y2="993.896" gradientUnits="userSpaceOnUse">
<stop/>
<stop offset="0.2022" stop-color="#2F2F2F"/>
<stop offset="0.6582" stop-color="#A4A4A4"/>
<stop offset="1" stop-color="white"/>
</linearGradient>
<linearGradient id="paint8_linear_1392_9494" x1="1610.38" y1="11.8344" x2="650.058" y2="972.153" gradientUnits="userSpaceOnUse">
<stop/>
<stop offset="0.2022" stop-color="#2F2F2F"/>
<stop offset="0.6582" stop-color="#A4A4A4"/>
<stop offset="1" stop-color="white"/>
</linearGradient>
<linearGradient id="paint9_linear_1392_9494" x1="1588.63" y1="-9.90978" x2="628.313" y2="950.409" gradientUnits="userSpaceOnUse">
<stop/>
<stop offset="0.2022" stop-color="#2F2F2F"/>
<stop offset="0.6582" stop-color="#A4A4A4"/>
<stop offset="1" stop-color="white"/>
</linearGradient>
<linearGradient id="paint10_linear_1392_9494" x1="1566.89" y1="-31.6543" x2="606.569" y2="928.665" gradientUnits="userSpaceOnUse">
<stop/>
<stop offset="0.2022" stop-color="#2F2F2F"/>
<stop offset="0.6582" stop-color="#A4A4A4"/>
<stop offset="1" stop-color="white"/>
</linearGradient>
<linearGradient id="paint11_linear_1392_9494" x1="1545.14" y1="-53.3978" x2="584.823" y2="906.922" gradientUnits="userSpaceOnUse">
<stop/>
<stop offset="0.2022" stop-color="#2F2F2F"/>
<stop offset="0.6582" stop-color="#A4A4A4"/>
<stop offset="1" stop-color="white"/>
</linearGradient>
<linearGradient id="paint12_linear_1392_9494" x1="1523.4" y1="-75.1423" x2="563.079" y2="885.179" gradientUnits="userSpaceOnUse">
<stop/>
<stop offset="0.2022" stop-color="#2F2F2F"/>
<stop offset="0.6582" stop-color="#A4A4A4"/>
<stop offset="1" stop-color="white"/>
</linearGradient>
<linearGradient id="paint13_linear_1392_9494" x1="1501.65" y1="-96.8861" x2="541.334" y2="863.434" gradientUnits="userSpaceOnUse">
<stop/>
<stop offset="0.2022" stop-color="#2F2F2F"/>
<stop offset="0.6582" stop-color="#A4A4A4"/>
<stop offset="1" stop-color="white"/>
</linearGradient>
<linearGradient id="paint14_linear_1392_9494" x1="1479.91" y1="-118.631" x2="519.59" y2="841.69" gradientUnits="userSpaceOnUse">
<stop/>
<stop offset="0.2022" stop-color="#2F2F2F"/>
<stop offset="0.6582" stop-color="#A4A4A4"/>
<stop offset="1" stop-color="white"/>
</linearGradient>
<linearGradient id="paint15_linear_1392_9494" x1="1458.17" y1="-140.375" x2="497.846" y2="819.946" gradientUnits="userSpaceOnUse">
<stop/>
<stop offset="0.2022" stop-color="#2F2F2F"/>
<stop offset="0.6582" stop-color="#A4A4A4"/>
<stop offset="1" stop-color="white"/>
</linearGradient>
<linearGradient id="paint16_linear_1392_9494" x1="1436.42" y1="-162.12" x2="476.102" y2="798.201" gradientUnits="userSpaceOnUse">
<stop/>
<stop offset="0.2022" stop-color="#2F2F2F"/>
<stop offset="0.6582" stop-color="#A4A4A4"/>
<stop offset="1" stop-color="white"/>
</linearGradient>
<linearGradient id="paint17_linear_1392_9494" x1="1414.68" y1="-183.864" x2="454.357" y2="776.458" gradientUnits="userSpaceOnUse">
<stop/>
<stop offset="0.2022" stop-color="#2F2F2F"/>
<stop offset="0.6582" stop-color="#A4A4A4"/>
<stop offset="1" stop-color="white"/>
</linearGradient>
<linearGradient id="paint18_linear_1392_9494" x1="474.65" y1="492.066" x2="999.069" y2="-32.3533" gradientUnits="userSpaceOnUse">
<stop/>
<stop offset="0.2022" stop-color="#2F2F2F"/>
<stop offset="0.6582" stop-color="#A4A4A4"/>
<stop offset="1" stop-color="white"/>
</linearGradient>
<linearGradient id="paint19_linear_1392_9494" x1="452.905" y1="470.323" x2="977.325" y2="-54.0963" gradientUnits="userSpaceOnUse">
<stop/>
<stop offset="0.2022" stop-color="#2F2F2F"/>
<stop offset="0.6582" stop-color="#A4A4A4"/>
<stop offset="1" stop-color="white"/>
</linearGradient>
<linearGradient id="paint20_linear_1392_9494" x1="431.161" y1="448.579" x2="955.58" y2="-75.8411" gradientUnits="userSpaceOnUse">
<stop/>
<stop offset="0.2022" stop-color="#2F2F2F"/>
<stop offset="0.6582" stop-color="#A4A4A4"/>
<stop offset="1" stop-color="white"/>
</linearGradient>
<linearGradient id="paint21_linear_1392_9494" x1="409.417" y1="426.833" x2="933.836" y2="-97.5857" gradientUnits="userSpaceOnUse">
<stop/>
<stop offset="0.2022" stop-color="#2F2F2F"/>
<stop offset="0.6582" stop-color="#A4A4A4"/>
<stop offset="1" stop-color="white"/>
</linearGradient>
<linearGradient id="paint22_linear_1392_9494" x1="387.672" y1="405.09" x2="912.093" y2="-119.331" gradientUnits="userSpaceOnUse">
<stop/>
<stop offset="0.2022" stop-color="#2F2F2F"/>
<stop offset="0.6582" stop-color="#A4A4A4"/>
<stop offset="1" stop-color="white"/>
</linearGradient>
<linearGradient id="paint23_linear_1392_9494" x1="365.928" y1="383.346" x2="890.348" y2="-141.073" gradientUnits="userSpaceOnUse">
<stop/>
<stop offset="0.2022" stop-color="#2F2F2F"/>
<stop offset="0.6582" stop-color="#A4A4A4"/>
<stop offset="1" stop-color="white"/>
</linearGradient>
<linearGradient id="paint24_linear_1392_9494" x1="344.184" y1="361.601" x2="868.605" y2="-162.82" gradientUnits="userSpaceOnUse">
<stop/>
<stop offset="0.2022" stop-color="#2F2F2F"/>
<stop offset="0.6582" stop-color="#A4A4A4"/>
<stop offset="1" stop-color="white"/>
</linearGradient>
<linearGradient id="paint25_linear_1392_9494" x1="322.44" y1="339.857" x2="846.86" y2="-184.563" gradientUnits="userSpaceOnUse">
<stop/>
<stop offset="0.2022" stop-color="#2F2F2F"/>
<stop offset="0.6582" stop-color="#A4A4A4"/>
<stop offset="1" stop-color="white"/>
</linearGradient>
<linearGradient id="paint26_linear_1392_9494" x1="300.695" y1="318.113" x2="825.117" y2="-206.309" gradientUnits="userSpaceOnUse">
<stop/>
<stop offset="0.2022" stop-color="#2F2F2F"/>
<stop offset="0.6582" stop-color="#A4A4A4"/>
<stop offset="1" stop-color="white"/>
</linearGradient>
<linearGradient id="paint27_linear_1392_9494" x1="278.951" y1="296.369" x2="803.371" y2="-228.051" gradientUnits="userSpaceOnUse">
<stop/>
<stop offset="0.2022" stop-color="#2F2F2F"/>
<stop offset="0.6582" stop-color="#A4A4A4"/>
<stop offset="1" stop-color="white"/>
</linearGradient>
<linearGradient id="paint28_linear_1392_9494" x1="257.207" y1="274.624" x2="781.627" y2="-249.796" gradientUnits="userSpaceOnUse">
<stop/>
<stop offset="0.2022" stop-color="#2F2F2F"/>
<stop offset="0.6582" stop-color="#A4A4A4"/>
<stop offset="1" stop-color="white"/>
</linearGradient>
<linearGradient id="paint29_linear_1392_9494" x1="235.463" y1="252.88" x2="759.882" y2="-271.54" gradientUnits="userSpaceOnUse">
<stop/>
<stop offset="0.2022" stop-color="#2F2F2F"/>
<stop offset="0.6582" stop-color="#A4A4A4"/>
<stop offset="1" stop-color="white"/>
</linearGradient>
<linearGradient id="paint30_linear_1392_9494" x1="213.719" y1="231.136" x2="738.139" y2="-293.283" gradientUnits="userSpaceOnUse">
<stop/>
<stop offset="0.2022" stop-color="#2F2F2F"/>
<stop offset="0.6582" stop-color="#A4A4A4"/>
<stop offset="1" stop-color="white"/>
</linearGradient>
<linearGradient id="paint31_linear_1392_9494" x1="191.975" y1="209.392" x2="716.395" y2="-315.028" gradientUnits="userSpaceOnUse">
<stop/>
<stop offset="0.2022" stop-color="#2F2F2F"/>
<stop offset="0.6582" stop-color="#A4A4A4"/>
<stop offset="1" stop-color="white"/>
</linearGradient>
<linearGradient id="paint32_linear_1392_9494" x1="170.23" y1="187.647" x2="694.65" y2="-336.773" gradientUnits="userSpaceOnUse">
<stop/>
<stop offset="0.2022" stop-color="#2F2F2F"/>
<stop offset="0.6582" stop-color="#A4A4A4"/>
<stop offset="1" stop-color="white"/>
</linearGradient>
<linearGradient id="paint33_linear_1392_9494" x1="148.487" y1="165.903" x2="672.906" y2="-358.517" gradientUnits="userSpaceOnUse">
<stop/>
<stop offset="0.2022" stop-color="#2F2F2F"/>
<stop offset="0.6582" stop-color="#A4A4A4"/>
<stop offset="1" stop-color="white"/>
</linearGradient>
<linearGradient id="paint34_linear_1392_9494" x1="126.741" y1="144.159" x2="651.161" y2="-380.261" gradientUnits="userSpaceOnUse">
<stop/>
<stop offset="0.2022" stop-color="#2F2F2F"/>
<stop offset="0.6582" stop-color="#A4A4A4"/>
<stop offset="1" stop-color="white"/>
</linearGradient>
<linearGradient id="paint35_linear_1392_9494" x1="104.997" y1="122.414" x2="629.417" y2="-402.006" gradientUnits="userSpaceOnUse">
<stop/>
<stop offset="0.2022" stop-color="#2F2F2F"/>
<stop offset="0.6582" stop-color="#A4A4A4"/>
<stop offset="1" stop-color="white"/>
</linearGradient>
<linearGradient id="paint36_linear_1392_9494" x1="746.661" y1="626.588" x2="222.24" y2="102.168" gradientUnits="userSpaceOnUse">
<stop/>
<stop offset="0.2022" stop-color="#2F2F2F"/>
<stop offset="0.6582" stop-color="#A4A4A4"/>
<stop offset="1" stop-color="white"/>
</linearGradient>
<linearGradient id="paint37_linear_1392_9494" x1="724.917" y1="648.333" x2="200.497" y2="123.912" gradientUnits="userSpaceOnUse">
<stop/>
<stop offset="0.2022" stop-color="#2F2F2F"/>
<stop offset="0.6582" stop-color="#A4A4A4"/>
<stop offset="1" stop-color="white"/>
</linearGradient>
<linearGradient id="paint38_linear_1392_9494" x1="703.173" y1="670.076" x2="178.752" y2="145.656" gradientUnits="userSpaceOnUse">
<stop/>
<stop offset="0.2022" stop-color="#2F2F2F"/>
<stop offset="0.6582" stop-color="#A4A4A4"/>
<stop offset="1" stop-color="white"/>
</linearGradient>
<linearGradient id="paint39_linear_1392_9494" x1="681.428" y1="691.822" x2="157.007" y2="167.401" gradientUnits="userSpaceOnUse">
<stop/>
<stop offset="0.2022" stop-color="#2F2F2F"/>
<stop offset="0.6582" stop-color="#A4A4A4"/>
<stop offset="1" stop-color="white"/>
</linearGradient>
<linearGradient id="paint40_linear_1392_9494" x1="659.684" y1="713.565" x2="135.263" y2="189.144" gradientUnits="userSpaceOnUse">
<stop/>
<stop offset="0.2022" stop-color="#2F2F2F"/>
<stop offset="0.6582" stop-color="#A4A4A4"/>
<stop offset="1" stop-color="white"/>
</linearGradient>
<linearGradient id="paint41_linear_1392_9494" x1="637.941" y1="735.309" x2="113.52" y2="210.888" gradientUnits="userSpaceOnUse">
<stop/>
<stop offset="0.2022" stop-color="#2F2F2F"/>
<stop offset="0.6582" stop-color="#A4A4A4"/>
<stop offset="1" stop-color="white"/>
</linearGradient>
<linearGradient id="paint42_linear_1392_9494" x1="616.196" y1="757.054" x2="91.7753" y2="232.634" gradientUnits="userSpaceOnUse">
<stop/>
<stop offset="0.2022" stop-color="#2F2F2F"/>
<stop offset="0.6582" stop-color="#A4A4A4"/>
<stop offset="1" stop-color="white"/>
</linearGradient>
<linearGradient id="paint43_linear_1392_9494" x1="594.451" y1="778.798" x2="69.6403" y2="253.988" gradientUnits="userSpaceOnUse">
<stop/>
<stop offset="0.2022" stop-color="#2F2F2F"/>
<stop offset="0.6582" stop-color="#A4A4A4"/>
<stop offset="1" stop-color="white"/>
</linearGradient>
<linearGradient id="paint44_linear_1392_9494" x1="572.707" y1="800.542" x2="48.2853" y2="276.12" gradientUnits="userSpaceOnUse">
<stop/>
<stop offset="0.2022" stop-color="#2F2F2F"/>
<stop offset="0.6582" stop-color="#A4A4A4"/>
<stop offset="1" stop-color="white"/>
</linearGradient>
<linearGradient id="paint45_linear_1392_9494" x1="550.963" y1="822.286" x2="26.5422" y2="297.866" gradientUnits="userSpaceOnUse">
<stop/>
<stop offset="0.2022" stop-color="#2F2F2F"/>
<stop offset="0.6582" stop-color="#A4A4A4"/>
<stop offset="1" stop-color="white"/>
</linearGradient>
<linearGradient id="paint46_linear_1392_9494" x1="529.218" y1="844.031" x2="4.79855" y2="319.611" gradientUnits="userSpaceOnUse">
<stop/>
<stop offset="0.2022" stop-color="#2F2F2F"/>
<stop offset="0.6582" stop-color="#A4A4A4"/>
<stop offset="1" stop-color="white"/>
</linearGradient>
<linearGradient id="paint47_linear_1392_9494" x1="507.474" y1="865.775" x2="-16.9456" y2="341.355" gradientUnits="userSpaceOnUse">
<stop/>
<stop offset="0.2022" stop-color="#2F2F2F"/>
<stop offset="0.6582" stop-color="#A4A4A4"/>
<stop offset="1" stop-color="white"/>
</linearGradient>
<linearGradient id="paint48_linear_1392_9494" x1="485.73" y1="887.518" x2="-38.6888" y2="363.099" gradientUnits="userSpaceOnUse">
<stop/>
<stop offset="0.2022" stop-color="#2F2F2F"/>
<stop offset="0.6582" stop-color="#A4A4A4"/>
<stop offset="1" stop-color="white"/>
</linearGradient>
<linearGradient id="paint49_linear_1392_9494" x1="463.986" y1="909.264" x2="-60.4353" y2="384.842" gradientUnits="userSpaceOnUse">
<stop/>
<stop offset="0.2022" stop-color="#2F2F2F"/>
<stop offset="0.6582" stop-color="#A4A4A4"/>
<stop offset="1" stop-color="white"/>
</linearGradient>
<linearGradient id="paint50_linear_1392_9494" x1="442.241" y1="931.007" x2="-82.1793" y2="406.586" gradientUnits="userSpaceOnUse">
<stop/>
<stop offset="0.2022" stop-color="#2F2F2F"/>
<stop offset="0.6582" stop-color="#A4A4A4"/>
<stop offset="1" stop-color="white"/>
</linearGradient>
<linearGradient id="paint51_linear_1392_9494" x1="420.498" y1="952.751" x2="-103.921" y2="428.333" gradientUnits="userSpaceOnUse">
<stop/>
<stop offset="0.2022" stop-color="#2F2F2F"/>
<stop offset="0.6582" stop-color="#A4A4A4"/>
<stop offset="1" stop-color="white"/>
</linearGradient>
<linearGradient id="paint52_linear_1392_9494" x1="398.753" y1="974.497" x2="-125.666" y2="450.078" gradientUnits="userSpaceOnUse">
<stop/>
<stop offset="0.2022" stop-color="#2F2F2F"/>
<stop offset="0.6582" stop-color="#A4A4A4"/>
<stop offset="1" stop-color="white"/>
</linearGradient>
<linearGradient id="paint53_linear_1392_9494" x1="377.008" y1="996.241" x2="-147.414" y2="471.819" gradientUnits="userSpaceOnUse">
<stop/>
<stop offset="0.2022" stop-color="#2F2F2F"/>
<stop offset="0.6582" stop-color="#A4A4A4"/>
<stop offset="1" stop-color="white"/>
</linearGradient>
</defs>
</svg>
