<svg width="155" height="184" viewBox="0 0 155 184" fill="none" xmlns="http://www.w3.org/2000/svg">
<path d="M188.359 123.103C195.237 117.85 199.596 109.969 200.374 101.37C201.155 92.7703 198.287 84.2395 192.464 77.843C186.642 71.4453 178.398 67.7686 169.732 67.7024H169.377C165.869 62.6435 161.208 58.4849 155.777 55.567C162.75 50.3387 167.187 42.4253 168.001 33.7696C168.815 25.114 165.93 16.5186 160.054 10.0898C154.178 3.66296 145.855 0 137.127 0C128.4 0 120.076 3.66292 114.201 10.0898C108.325 16.5182 105.439 25.114 106.253 33.7696C107.067 42.4253 111.504 50.3391 118.477 55.567C113.045 58.485 108.385 62.6435 104.878 67.7024H104.147C100.624 62.6545 95.9583 58.5034 90.5246 55.5886C97.5005 50.3619 101.942 42.4497 102.76 33.7929C103.576 25.1356 100.692 16.5371 94.8152 10.1071C88.9397 3.67872 80.6151 0.0141835 71.8855 0.0141835C63.1578 0.0141835 54.8332 3.67864 48.9557 10.1071C43.0802 16.5371 40.1956 25.136 41.0128 33.7929C41.83 42.4497 46.2705 50.3623 53.2464 55.5886C47.8158 58.5082 43.1558 62.6668 39.647 67.7241H39.2701C30.6101 67.7979 22.3768 71.4778 16.5614 77.8694C10.746 84.2628 7.87846 92.7857 8.65408 101.378C9.42967 109.969 13.7773 117.848 20.6432 123.104C14.4046 126.452 9.19318 131.419 5.55752 137.48C1.92364 143.539 0.0031642 150.464 0 157.524V177.381C0 179.137 0.699881 180.82 1.94519 182.061C3.192 183.303 4.88228 184 6.64521 184H202.355C204.118 184 205.808 183.303 207.055 182.061C208.3 180.82 209 179.137 209 177.381V157.524C208.997 150.464 207.076 143.539 203.442 137.48C199.807 131.419 194.596 126.452 188.357 123.104L188.359 123.103ZM187.407 98.5246C187.407 103.206 185.539 107.696 182.217 111.006C178.894 114.317 174.387 116.176 169.687 116.176C164.987 116.176 160.481 114.317 157.157 111.006C153.834 107.696 151.967 103.206 151.967 98.5246C151.967 93.8427 153.834 89.3536 157.157 86.0428C160.48 82.7339 164.987 80.8732 169.687 80.8732C174.406 80.8732 178.929 82.7478 182.256 86.083C185.582 89.4166 187.436 93.9353 187.407 98.6353L187.407 98.5246ZM137.128 13.5361C141.828 13.5361 146.335 15.3952 149.658 18.7057C152.98 22.0161 154.848 26.5056 154.848 31.1874C154.848 35.8677 152.98 40.3568 149.658 43.6676C146.335 46.978 141.828 48.8372 137.128 48.8372C132.428 48.8372 127.921 46.978 124.598 43.6676C121.274 40.3571 119.408 35.8677 119.408 31.1874C119.408 26.5056 121.275 22.0164 124.598 18.7057C127.921 15.3952 132.428 13.5361 137.128 13.5361ZM137.128 64.2825C143.844 64.2579 150.305 66.8466 155.135 71.4962C145.873 76.4455 139.771 85.7446 138.939 96.1807C138.106 106.617 142.655 116.759 151.016 123.103C145.388 126.141 140.584 130.495 137.017 135.791C133.482 130.509 128.717 126.157 123.13 123.103C131.509 116.778 136.085 106.642 135.274 96.1992C134.463 85.7568 128.377 76.4412 119.121 71.4745C123.95 66.825 130.412 64.2364 137.128 64.2597L137.128 64.2825ZM130.483 164.251V170.87H78.5188V157.631C78.7845 148.569 83.7919 140.306 91.7179 135.849C99.6438 131.392 109.334 131.392 117.26 135.849C125.186 140.306 130.193 148.569 130.459 157.631L130.483 164.251ZM104.502 81.047C109.202 81.047 113.708 82.9062 117.032 86.2166C120.354 89.527 122.222 94.0165 122.222 98.6983C122.222 103.379 120.354 107.869 117.032 111.178C113.709 114.489 109.202 116.35 104.502 116.35C99.8016 116.35 95.295 114.489 91.9714 111.178C88.6496 107.87 86.7817 103.379 86.7817 98.6983C86.7817 94.0165 88.6497 89.5273 91.9714 86.2166C95.2947 82.9061 99.8016 81.047 104.502 81.047ZM71.8756 13.5321C76.5756 13.5321 81.0822 15.3913 84.4058 18.7017C87.7291 22.0122 89.5955 26.5016 89.5955 31.1835C89.5955 35.8637 87.7291 40.3529 84.4058 43.6636C81.0825 46.9744 76.5756 48.8332 71.8756 48.8332C67.1756 48.8332 62.6689 46.974 59.3453 43.6636C56.0236 40.3532 54.1557 35.8637 54.1557 31.1835C54.1557 26.5016 56.0236 22.0125 59.3453 18.7017C62.6687 15.3913 67.1756 13.5321 71.8756 13.5321ZM71.8756 64.2786C78.5702 64.2909 84.9991 66.8842 89.8162 71.5151C80.5878 76.4983 74.5299 85.8096 73.7326 96.2366C72.9352 106.664 77.5086 116.781 85.8732 123.099C80.2461 126.137 75.4412 130.491 71.8752 135.787C68.3402 130.505 63.5755 126.153 57.9871 123.099C66.3596 116.76 70.9204 106.614 70.0921 96.1704C69.2625 85.7264 63.1582 76.4215 53.8895 71.4706C58.7224 66.8258 65.1821 64.2372 71.8965 64.2557L71.8756 64.2786ZM39.2709 81.0466C43.9709 81.0466 48.4775 82.9058 51.8011 86.2162C55.1244 89.5266 56.9908 94.0161 56.9908 98.6979C56.9908 103.378 55.1244 107.869 51.8011 111.178C48.4778 114.489 43.9709 116.349 39.2709 116.349C34.5724 116.349 30.0658 114.489 26.7422 111.178C23.4189 107.869 21.5526 103.378 21.5526 98.6979C21.5526 94.0161 23.419 89.5269 26.7422 86.2162C30.0655 82.9054 34.5724 81.0466 39.2709 81.0466ZM13.2897 170.889V157.65V157.652C13.5554 148.588 18.5628 140.325 26.4887 135.868C34.4162 131.411 44.105 131.411 52.0309 135.868C59.9568 140.325 64.9642 148.588 65.23 157.652V170.891L13.2897 170.889ZM195.71 170.889H143.769V157.65V157.652C144.035 148.588 149.042 140.325 156.968 135.868C164.894 131.411 174.583 131.411 182.511 135.868C190.436 140.325 195.444 148.588 195.71 157.652V170.889Z" fill="#F0F4FB"/>
</svg>
