<svg width="125" height="125" viewBox="0 0 125 125" fill="none" xmlns="http://www.w3.org/2000/svg">
<g filter="url(#filter0_dii_0_1)">
<rect x="22" y="11" width="81" height="81" rx="27.806" fill="url(#paint0_linear_0_1)"/>
</g>
<path d="M81.5421 59.7001C83.1734 58.4475 84.2071 56.5679 84.3918 54.5174C84.5768 52.4665 83.8967 50.4322 82.5157 48.9068C81.135 47.3811 79.1798 46.5043 77.1245 46.4885H77.0402C76.2084 45.2821 75.103 44.2904 73.8149 43.5945C75.4686 42.3477 76.521 40.4606 76.714 38.3964C76.9071 36.3323 76.2227 34.2825 74.8291 32.7494C73.4357 31.2168 71.4618 30.3433 69.3918 30.3433C67.3219 30.3433 65.348 31.2168 63.9544 32.7494C62.561 34.2824 61.8765 36.3323 62.0695 38.3964C62.2627 40.4606 63.315 42.3478 64.9687 43.5945C63.6803 44.2904 62.5751 45.2821 61.7434 46.4885H61.5701C60.7346 45.2847 59.628 44.2948 58.3394 43.5997C59.9938 42.3532 61.0472 40.4664 61.2411 38.402C61.4346 36.3374 60.7508 34.2869 59.3569 32.7535C57.9635 31.2205 55.9892 30.3466 53.9188 30.3466C51.849 30.3466 49.8747 31.2205 48.4807 32.7535C47.0873 34.2869 46.4032 36.3375 46.597 38.402C46.7908 40.4664 47.8439 42.3533 49.4983 43.5997C48.2104 44.2959 47.1052 45.2876 46.2731 46.4937H46.1837C44.1298 46.5113 42.1772 47.3888 40.798 48.9131C39.4188 50.4377 38.7387 52.4702 38.9227 54.5193C39.1066 56.568 40.1377 58.4468 41.7661 59.7002C40.2865 60.4988 39.0505 61.6832 38.1883 63.1285C37.3265 64.5735 36.871 66.225 36.8702 67.9086V72.6438C36.8702 73.0626 37.0362 73.4641 37.3316 73.7599C37.6273 74.0561 38.0281 74.2224 38.4462 74.2224H84.8614C85.2795 74.2224 85.6804 74.0561 85.9761 73.7599C86.2714 73.4641 86.4374 73.0626 86.4374 72.6438V67.9086C86.4367 66.225 85.9812 64.5735 85.1194 63.1285C84.2572 61.6832 83.0213 60.4988 81.5416 59.7002L81.5421 59.7001ZM81.3164 53.8388C81.3164 54.9553 80.8734 56.0258 80.0856 56.8153C79.2974 57.6048 78.2285 58.0481 77.1139 58.0481C75.9992 58.0481 74.9304 57.6048 74.1421 56.8153C73.354 56.0259 72.9113 54.9553 72.9113 53.8388C72.9113 52.7223 73.354 51.6517 74.1421 50.8622C74.9303 50.0731 75.9992 49.6294 77.1139 49.6294C78.2329 49.6294 79.3058 50.0764 80.0947 50.8718C80.8836 51.6667 81.3233 52.7443 81.3163 53.8652L81.3164 53.8388ZM69.392 33.5713C70.5067 33.5713 71.5755 34.0146 72.3637 34.8041C73.1515 35.5935 73.5945 36.6641 73.5945 37.7806C73.5945 38.8967 73.1515 39.9673 72.3637 40.7568C71.5755 41.5463 70.5067 41.9896 69.392 41.9896C68.2773 41.9896 67.2085 41.5463 66.4203 40.7568C65.6321 39.9674 65.1895 38.8967 65.1895 37.7806C65.1895 36.6641 65.6321 35.5936 66.4203 34.8041C67.2085 34.0146 68.2773 33.5713 69.392 33.5713ZM69.392 45.6729C70.9848 45.6671 72.5172 46.2844 73.6626 47.3932C71.4659 48.5735 70.0189 50.7911 69.8214 53.2798C69.6239 55.7685 70.7027 58.1872 72.6857 59.7001C71.3509 60.4246 70.2117 61.4629 69.3656 62.7258C68.5272 61.4662 67.3972 60.4283 66.0722 59.7001C68.0593 58.1916 69.1446 55.7745 68.9522 53.2842C68.7599 50.794 67.3165 48.5725 65.1213 47.388C66.2667 46.2792 67.7991 45.6619 69.3919 45.6675L69.392 45.6729ZM67.816 69.5127V71.0913H55.492V67.9341C55.5551 65.7731 56.7426 63.8025 58.6224 62.7397C60.5021 61.6769 62.8003 61.6769 64.68 62.7397C66.5598 63.8025 67.7473 65.7731 67.8104 67.9341L67.816 69.5127ZM61.6542 49.6708C62.7689 49.6708 63.8377 50.1142 64.6259 50.9036C65.4137 51.6931 65.8567 52.7637 65.8567 53.8802C65.8567 54.9963 65.4137 56.0672 64.6259 56.8564C63.8377 57.6458 62.7689 58.0896 61.6542 58.0896C60.5395 58.0896 59.4707 57.6458 58.6825 56.8564C57.8947 56.0673 57.4517 54.9963 57.4517 53.8802C57.4517 52.7637 57.8947 51.6932 58.6825 50.9036C59.4707 50.1142 60.5395 49.6708 61.6542 49.6708ZM53.9165 33.5703C55.0312 33.5703 56.1 34.0137 56.8882 34.8031C57.6764 35.5926 58.119 36.6632 58.119 37.7797C58.119 38.8958 57.6764 39.9664 56.8882 40.7559C56.1 41.5454 55.0312 41.9887 53.9165 41.9887C52.8018 41.9887 51.733 41.5453 50.9448 40.7559C50.157 39.9664 49.714 38.8958 49.714 37.7797C49.714 36.6632 50.157 35.5926 50.9448 34.8031C51.733 34.0137 52.8018 33.5703 53.9165 33.5703ZM53.9165 45.672C55.5042 45.6749 57.0289 46.2934 58.1714 47.3977C55.9827 48.5861 54.546 50.8066 54.3569 53.2931C54.1678 55.7797 55.2524 58.1926 57.2362 59.6992C55.9017 60.4237 54.7621 61.462 53.9164 62.7249C53.078 61.4653 51.948 60.4273 50.6227 59.6992C52.6083 58.1874 53.69 55.768 53.4935 53.2774C53.2968 50.7867 51.8491 48.5678 49.6509 47.3871C50.797 46.2794 52.3291 45.6621 53.9215 45.6666L53.9165 45.672ZM46.1839 49.6707C47.2985 49.6707 48.3673 50.1141 49.1556 50.9035C49.9437 51.693 50.3864 52.7636 50.3864 53.8801C50.3864 54.9962 49.9437 56.0671 49.1556 56.8563C48.3674 57.6457 47.2985 58.0895 46.1839 58.0895C45.0696 58.0895 44.0008 57.6457 43.2125 56.8563C42.4244 56.0672 41.9817 54.9962 41.9817 53.8801C41.9817 52.7636 42.4244 51.6931 43.2125 50.9035C44.0007 50.114 45.0696 49.6707 46.1839 49.6707ZM40.0221 71.0958V67.9386V67.939C40.0851 65.7776 41.2727 63.807 43.1524 62.7442C45.0325 61.6814 47.3303 61.6814 49.2101 62.7442C51.0898 63.807 52.2774 65.7776 52.3404 67.939V71.0962L40.0221 71.0958ZM83.2854 71.0958H70.9671V67.9386V67.939C71.0301 65.7776 72.2177 63.807 74.0974 62.7442C75.9771 61.6814 78.275 61.6814 80.1551 62.7442C82.0348 63.807 83.2224 65.7776 83.2854 67.939V71.0958Z" fill="white"/>
<defs>
<filter id="filter0_dii_0_1" x="0.4" y="0.2" width="124.2" height="124.2" filterUnits="userSpaceOnUse" color-interpolation-filters="sRGB">
<feFlood flood-opacity="0" result="BackgroundImageFix"/>
<feColorMatrix in="SourceAlpha" type="matrix" values="0 0 0 0 0 0 0 0 0 0 0 0 0 0 0 0 0 0 127 0" result="hardAlpha"/>
<feOffset dy="10.8"/>
<feGaussianBlur stdDeviation="10.8"/>
<feColorMatrix type="matrix" values="0 0 0 0 0.0784314 0 0 0 0 0.109804 0 0 0 0 0.16 0 0 0 0.24 0"/>
<feBlend mode="normal" in2="BackgroundImageFix" result="effect1_dropShadow_0_1"/>
<feBlend mode="normal" in="SourceGraphic" in2="effect1_dropShadow_0_1" result="shape"/>
<feColorMatrix in="SourceAlpha" type="matrix" values="0 0 0 0 0 0 0 0 0 0 0 0 0 0 0 0 0 0 127 0" result="hardAlpha"/>
<feOffset dy="3.36"/>
<feGaussianBlur stdDeviation="1.68"/>
<feComposite in2="hardAlpha" operator="arithmetic" k2="-1" k3="1"/>
<feColorMatrix type="matrix" values="0 0 0 0 0.454902 0 0 0 0 0.636863 0 0 0 0 0.928 0 0 0 1 0"/>
<feBlend mode="normal" in2="shape" result="effect2_innerShadow_0_1"/>
<feColorMatrix in="SourceAlpha" type="matrix" values="0 0 0 0 0 0 0 0 0 0 0 0 0 0 0 0 0 0 127 0" result="hardAlpha"/>
<feOffset dy="-3.36"/>
<feGaussianBlur stdDeviation="1.68"/>
<feComposite in2="hardAlpha" operator="arithmetic" k2="-1" k3="1"/>
<feColorMatrix type="matrix" values="0 0 0 0 0.313726 0 0 0 0 0.439216 0 0 0 0 0.64 0 0 0 1 0"/>
<feBlend mode="normal" in2="effect2_innerShadow_0_1" result="effect3_innerShadow_0_1"/>
</filter>
<linearGradient id="paint0_linear_0_1" x1="62.5" y1="11" x2="62.5" y2="92" gradientUnits="userSpaceOnUse">
<stop stop-color="#709DE4"/>
<stop offset="1" stop-color="#5476AB"/>
</linearGradient>
</defs>
</svg>
